<?xml version="1.0" encoding="UTF-8"?>
<svg xmlns="http://www.w3.org/2000/svg" xmlns:xlink="http://www.w3.org/1999/xlink" width="50pt" height="50pt" viewBox="0 0 50 50" version="1.1">
<g id="surface1">
<path style=" stroke:none;fill-rule:nonzero;fill:rgb(0%,0%,0%);fill-opacity:1;" d="M 34.894531 47.617188 C 32.375 47.617188 30.007812 46.578125 28.230469 44.695312 C 27.296875 43.703125 26.050781 43.15625 24.730469 43.15625 C 23.40625 43.15625 22.164062 43.703125 21.226562 44.695312 C 19.453125 46.578125 17.085938 47.617188 14.566406 47.617188 C 12.046875 47.617188 9.679688 46.578125 7.902344 44.695312 C 4.253906 40.828125 4.253906 34.53125 7.902344 30.664062 L 13.148438 24.714844 C 16.179688 21.28125 20.289062 19.390625 24.730469 19.390625 C 29.171875 19.390625 33.28125 21.28125 36.308594 24.714844 L 41.5625 30.671875 C 45.203125 34.539062 45.203125 40.828125 41.554688 44.695312 C 39.78125 46.578125 37.414062 47.617188 34.894531 47.617188 Z M 34.894531 47.617188 "/>
<path style=" stroke:none;fill-rule:nonzero;fill:rgb(0%,0%,0%);fill-opacity:1;" d="M 17.515625 15.851562 C 14.703125 15.851562 12.546875 13.921875 11.847656 10.632812 C 10.972656 6.515625 12.835938 2.617188 16 1.945312 C 19.164062 1.265625 22.453125 4.074219 23.328125 8.195312 C 24.136719 12.011719 22.410156 14.960938 18.921875 15.699219 C 18.4375 15.804688 17.96875 15.851562 17.515625 15.851562 Z M 17.515625 15.851562 "/>
<path style=" stroke:none;fill-rule:nonzero;fill:rgb(0%,0%,0%);fill-opacity:1;" d="M 31.945312 15.851562 C 31.492188 15.851562 31.023438 15.804688 30.535156 15.699219 C 27.050781 14.960938 25.320312 12.011719 26.132812 8.195312 C 27.007812 4.074219 30.296875 1.269531 33.460938 1.945312 C 36.625 2.617188 38.484375 6.515625 37.609375 10.632812 C 36.914062 13.921875 34.757812 15.851562 31.945312 15.851562 Z M 31.945312 15.851562 "/>
<path style=" stroke:none;fill-rule:nonzero;fill:rgb(0%,0%,0%);fill-opacity:1;" d="M 43.414062 25.015625 C 42.546875 25.015625 41.660156 24.8125 40.800781 24.414062 C 39.3125 23.71875 38.222656 22.570312 37.726562 21.175781 C 37.195312 19.667969 37.359375 17.914062 38.203125 16.109375 C 39.980469 12.292969 43.8125 10.300781 46.746094 11.667969 C 49.679688 13.035156 50.617188 17.25 48.835938 21.070312 C 47.992188 22.875 46.757812 24.125 45.257812 24.6875 C 44.671875 24.90625 44.046875 25.015625 43.414062 25.015625 Z M 43.414062 25.015625 "/>
<path style=" stroke:none;fill-rule:nonzero;fill:rgb(0%,0%,0%);fill-opacity:1;" d="M 6.046875 25.015625 C 5.410156 25.015625 4.789062 24.90625 4.203125 24.6875 C 2.703125 24.125 1.464844 22.875 0.625 21.070312 C -1.15625 17.25 -0.21875 13.035156 2.710938 11.667969 C 5.648438 10.300781 9.476562 12.292969 11.257812 16.109375 C 12.101562 17.914062 12.265625 19.667969 11.726562 21.179688 C 11.234375 22.570312 10.144531 23.71875 8.65625 24.414062 C 7.796875 24.8125 6.910156 25.015625 6.046875 25.015625 Z M 6.046875 25.015625 "/>
</g>
</svg>
