<?xml version="1.0" encoding="UTF-8"?>
<svg xmlns="http://www.w3.org/2000/svg" xmlns:xlink="http://www.w3.org/1999/xlink" width="100pt" height="100pt" viewBox="0 0 100 100" version="1.1">
<g id="surface1">
<path style=" stroke:none;fill-rule:nonzero;fill:rgb(0%,0%,0%);fill-opacity:1;" d="M 69.789062 95.230469 C 64.75 95.230469 60.019531 93.15625 56.460938 89.386719 C 54.589844 87.402344 52.101562 86.308594 49.460938 86.308594 C 46.816406 86.308594 44.332031 87.402344 42.457031 89.386719 C 38.902344 93.15625 34.167969 95.230469 29.132812 95.230469 C 24.09375 95.230469 19.359375 93.15625 15.804688 89.386719 C 8.507812 81.652344 8.507812 69.0625 15.804688 61.328125 L 26.300781 49.429688 C 32.359375 42.566406 40.582031 38.785156 49.460938 38.785156 C 58.339844 38.785156 66.5625 42.566406 72.617188 49.429688 L 83.125 61.34375 C 90.410156 69.078125 90.40625 81.65625 83.113281 89.386719 C 79.558594 93.15625 74.824219 95.230469 69.789062 95.230469 Z M 69.789062 95.230469 "/>
<path style=" stroke:none;fill-rule:nonzero;fill:rgb(0%,0%,0%);fill-opacity:1;" d="M 35.027344 31.707031 C 29.40625 31.707031 25.09375 27.84375 23.695312 21.265625 C 21.945312 13.027344 25.667969 5.230469 32 3.886719 C 38.328125 2.535156 44.902344 8.148438 46.652344 16.386719 C 48.273438 24.023438 44.820312 29.917969 37.847656 31.398438 C 36.878906 31.605469 35.9375 31.707031 35.027344 31.707031 Z M 35.027344 31.707031 "/>
<path style=" stroke:none;fill-rule:nonzero;fill:rgb(0%,0%,0%);fill-opacity:1;" d="M 63.890625 31.707031 C 62.980469 31.707031 62.042969 31.605469 61.070312 31.398438 C 54.101562 29.917969 50.644531 24.023438 52.265625 16.386719 C 54.019531 8.148438 60.59375 2.539062 66.921875 3.886719 C 73.25 5.230469 76.972656 13.03125 75.222656 21.265625 C 73.824219 27.84375 69.511719 31.707031 63.890625 31.707031 Z M 63.890625 31.707031 "/>
<path style=" stroke:none;fill-rule:nonzero;fill:rgb(0%,0%,0%);fill-opacity:1;" d="M 86.824219 50.03125 C 85.097656 50.03125 83.320312 49.625 81.601562 48.828125 C 78.628906 47.4375 76.445312 45.140625 75.457031 42.351562 C 74.390625 39.335938 74.71875 35.828125 76.402344 32.21875 C 79.960938 24.585938 87.625 20.601562 93.492188 23.335938 C 99.355469 26.070312 101.230469 34.503906 97.671875 42.136719 C 95.988281 45.75 93.511719 48.25 90.511719 49.375 C 89.339844 49.8125 88.09375 50.03125 86.824219 50.03125 Z M 86.824219 50.03125 "/>
<path style=" stroke:none;fill-rule:nonzero;fill:rgb(0%,0%,0%);fill-opacity:1;" d="M 12.09375 50.03125 C 10.820312 50.03125 9.578125 49.8125 8.40625 49.375 C 5.40625 48.25 2.929688 45.75 1.246094 42.136719 C -2.3125 34.503906 -0.4375 26.070312 5.425781 23.335938 C 11.292969 20.601562 18.957031 24.585938 22.515625 32.21875 C 24.199219 35.832031 24.527344 39.335938 23.457031 42.355469 C 22.472656 45.140625 20.289062 47.4375 17.3125 48.828125 C 15.597656 49.625 13.820312 50.03125 12.09375 50.03125 Z M 12.09375 50.03125 "/>
</g>
</svg>
